<svg width="55.669983" height="48.000000" viewBox="0 0 55.67 48" fill="none" xmlns="http://www.w3.org/2000/svg" xmlns:xlink="http://www.w3.org/1999/xlink">
	<desc>
			Created with Pixso.
	</desc>
	<defs/>
	<rect id="Link" rx="4.000000" width="54.669998" height="47.000000" transform="translate(0.500000 0.500000)" fill="#057AFF" fill-opacity="1.000000"/>
	<path id="C" d="M35.8598 35.543C34.2778 36.3633 32.31 36.7734 29.9565 36.7734C26.9096 36.7734 24.4682 35.8115 22.6323 33.8877C20.7963 31.9639 19.8784 29.4395 19.8784 26.3145C19.8784 22.9551 20.9086 20.2402 22.9692 18.1699C25.0395 16.0996 27.6518 15.0645 30.8061 15.0645C32.8373 15.0645 34.5219 15.3525 35.8598 15.9287L35.8598 19.3857C34.4438 18.5459 32.8813 18.126 31.1723 18.126C28.8969 18.126 27.0512 18.8535 25.6352 20.3086C24.2289 21.7637 23.5258 23.707 23.5258 26.1387C23.5258 28.4531 24.185 30.2988 25.5034 31.6758C26.8217 33.043 28.5551 33.7266 30.7036 33.7266C32.686 33.7266 34.4047 33.2578 35.8598 32.3203L35.8598 35.543Z" fill="#DBE1FF" fill-opacity="1.000000" fill-rule="evenodd"/>
	<rect id="Link" rx="4.000000" width="54.669998" height="47.000000" transform="translate(0.500000 0.500000)" stroke="#057AFF" stroke-opacity="1.000000" stroke-width="1.000000"/>
</svg>
