<svg width="13.750000" height="11.250000" viewBox="0 0 13.75 11.25" fill="none" xmlns="http://www.w3.org/2000/svg" xmlns:xlink="http://www.w3.org/1999/xlink">
	<desc>
			Created with Pixso.
	</desc>
	<defs/>
	<path id="Vector" d="M0 10.625C0 10.4592 0.0658569 10.3003 0.183044 10.183C0.300293 10.0659 0.459229 10 0.625 10L13.125 10C13.2908 10 13.4497 10.0659 13.567 10.183C13.6841 10.3003 13.75 10.4592 13.75 10.625C13.75 10.7908 13.6841 10.9497 13.567 11.067C13.4497 11.1841 13.2908 11.25 13.125 11.25L0.625 11.25C0.459229 11.25 0.300293 11.1841 0.183044 11.067C0.0658569 10.9497 0 10.7908 0 10.625ZM0 5.625C0 5.45923 0.0658569 5.30029 0.183044 5.18304C0.300293 5.06586 0.459229 5 0.625 5L13.125 5C13.2908 5 13.4497 5.06586 13.567 5.18304C13.6841 5.30029 13.75 5.45923 13.75 5.625C13.75 5.79077 13.6841 5.94971 13.567 6.06696C13.4497 6.18414 13.2908 6.25 13.125 6.25L0.625 6.25C0.459229 6.25 0.300293 6.18414 0.183044 6.06696C0.0658569 5.94971 0 5.79077 0 5.625ZM0 0.625C0 0.459229 0.0658569 0.300293 0.183044 0.183044C0.300293 0.0658569 0.459229 0 0.625 0L13.125 0C13.2908 0 13.4497 0.0658569 13.567 0.183044C13.6841 0.300293 13.75 0.459229 13.75 0.625C13.75 0.790771 13.6841 0.949707 13.567 1.06696C13.4497 1.18414 13.2908 1.25 13.125 1.25L0.625 1.25C0.459229 1.25 0.300293 1.18414 0.183044 1.06696C0.0658569 0.949707 0 0.790771 0 0.625Z" fill="#394E6A" fill-opacity="1.000000" fill-rule="evenodd"/>
	<path id="Vector" d="M0.183044 10.183C0.300293 10.0659 0.459229 10 0.625 10L13.125 10C13.2908 10 13.4497 10.0659 13.567 10.183C13.6841 10.3003 13.75 10.4592 13.75 10.625C13.75 10.7908 13.6841 10.9497 13.567 11.067C13.4497 11.1841 13.2908 11.25 13.125 11.25L0.625 11.25C0.459229 11.25 0.300293 11.1841 0.183044 11.067C0.0658569 10.9497 0 10.7908 0 10.625C0 10.4592 0.0658569 10.3003 0.183044 10.183ZM0.183044 5.18304C0.300293 5.06586 0.459229 5 0.625 5L13.125 5C13.2908 5 13.4497 5.06586 13.567 5.18304C13.6841 5.30029 13.75 5.45923 13.75 5.625C13.75 5.79077 13.6841 5.94971 13.567 6.06696C13.4497 6.18414 13.2908 6.25 13.125 6.25L0.625 6.25C0.459229 6.25 0.300293 6.18414 0.183044 6.06696C0.0658569 5.94971 0 5.79077 0 5.625C0 5.45923 0.0658569 5.30029 0.183044 5.18304ZM0.183044 0.183044C0.300293 0.0658569 0.459229 0 0.625 0L13.125 0C13.2908 0 13.4497 0.0658569 13.567 0.183044C13.6841 0.300293 13.75 0.459229 13.75 0.625C13.75 0.790771 13.6841 0.949707 13.567 1.06696C13.4497 1.18414 13.2908 1.25 13.125 1.25L0.625 1.25C0.459229 1.25 0.300293 1.18414 0.183044 1.06696C0.0658569 0.949707 0 0.790771 0 0.625C0 0.459229 0.0658569 0.300293 0.183044 0.183044Z" stroke="#394E6A" stroke-opacity="1.000000" stroke-width="0.000000"/>
</svg>
