<svg width="17.500000" height="17.500000" viewBox="0 0 17.5 17.5" fill="none" xmlns="http://www.w3.org/2000/svg" xmlns:xlink="http://www.w3.org/1999/xlink">
	<desc>
			Created with Pixso.
	</desc>
	<defs/>
	<path id="Vector" d="M0 1.875C0 1.37775 0.19754 0.900818 0.549164 0.549194C0.900818 0.197571 1.37772 0 1.875 0L5.625 0C6.12228 0 6.59918 0.197571 6.95084 0.549194C7.30246 0.900818 7.5 1.37775 7.5 1.875L7.5 5.625C7.5 6.12225 7.30246 6.59918 6.95084 6.95081C6.59918 7.30243 6.12228 7.5 5.625 7.5L1.875 7.5C1.37772 7.5 0.900818 7.30243 0.549164 6.95081C0.19754 6.59918 0 6.12225 0 5.625L0 1.875ZM10 1.875C10 1.37775 10.1975 0.900818 10.5492 0.549194C10.9008 0.197571 11.3777 0 11.875 0L15.625 0C16.1223 0 16.5992 0.197571 16.9508 0.549194C17.3025 0.900818 17.5 1.37775 17.5 1.875L17.5 5.625C17.5 6.12225 17.3025 6.59918 16.9508 6.95081C16.5992 7.30243 16.1223 7.5 15.625 7.5L11.875 7.5C11.3777 7.5 10.9008 7.30243 10.5492 6.95081C10.1975 6.59918 10 6.12225 10 5.625L10 1.875ZM0 11.875C0 11.3777 0.19754 10.9008 0.549164 10.5492C0.900818 10.1976 1.37772 10 1.875 10L5.625 10C6.12228 10 6.59918 10.1976 6.95084 10.5492C7.30246 10.9008 7.5 11.3777 7.5 11.875L7.5 15.625C7.5 16.1223 7.30246 16.5992 6.95084 16.9508C6.59918 17.3024 6.12228 17.5 5.625 17.5L1.875 17.5C1.37772 17.5 0.900818 17.3024 0.549164 16.9508C0.19754 16.5992 0 16.1223 0 15.625L0 11.875ZM10 11.875C10 11.3777 10.1975 10.9008 10.5492 10.5492C10.9008 10.1976 11.3777 10 11.875 10L15.625 10C16.1223 10 16.5992 10.1976 16.9508 10.5492C17.3025 10.9008 17.5 11.3777 17.5 11.875L17.5 15.625C17.5 16.1223 17.3025 16.5992 16.9508 16.9508C16.5992 17.3024 16.1223 17.5 15.625 17.5L11.875 17.5C11.3777 17.5 10.9008 17.3024 10.5492 16.9508C10.1975 16.5992 10 16.1223 10 15.625L10 11.875Z" fill="#DBE1FF" fill-opacity="1.000000" fill-rule="nonzero"/>
	<path id="Vector" d="M0.549164 0.549194C0.900818 0.197571 1.37772 0 1.875 0L5.625 0C6.12228 0 6.59918 0.197571 6.95084 0.549194C7.30246 0.900818 7.5 1.37775 7.5 1.875L7.5 5.625C7.5 6.12225 7.30246 6.59918 6.95084 6.95081C6.59918 7.30243 6.12228 7.5 5.625 7.5L1.875 7.5C1.37772 7.5 0.900818 7.30243 0.549164 6.95081C0.19754 6.59918 0 6.12225 0 5.625L0 1.875C0 1.37775 0.19754 0.900818 0.549164 0.549194ZM10.5492 0.549194C10.9008 0.197571 11.3777 0 11.875 0L15.625 0C16.1223 0 16.5992 0.197571 16.9508 0.549194C17.3025 0.900818 17.5 1.37775 17.5 1.875L17.5 5.625C17.5 6.12225 17.3025 6.59918 16.9508 6.95081C16.5992 7.30243 16.1223 7.5 15.625 7.5L11.875 7.5C11.3777 7.5 10.9008 7.30243 10.5492 6.95081C10.1975 6.59918 10 6.12225 10 5.625L10 1.875C10 1.37775 10.1975 0.900818 10.5492 0.549194ZM0.549164 10.5492C0.900818 10.1976 1.37772 10 1.875 10L5.625 10C6.12228 10 6.59918 10.1976 6.95084 10.5492C7.30246 10.9008 7.5 11.3777 7.5 11.875L7.5 15.625C7.5 16.1223 7.30246 16.5992 6.95084 16.9508C6.59918 17.3024 6.12228 17.5 5.625 17.5L1.875 17.5C1.37772 17.5 0.900818 17.3024 0.549164 16.9508C0.19754 16.5992 0 16.1223 0 15.625L0 11.875C0 11.3777 0.19754 10.9008 0.549164 10.5492ZM10.5492 10.5492C10.9008 10.1976 11.3777 10 11.875 10L15.625 10C16.1223 10 16.5992 10.1976 16.9508 10.5492C17.3025 10.9008 17.5 11.3777 17.5 11.875L17.5 15.625C17.5 16.1223 17.3025 16.5992 16.9508 16.9508C16.5992 17.3024 16.1223 17.5 15.625 17.5L11.875 17.5C11.3777 17.5 10.9008 17.3024 10.5492 16.9508C10.1975 16.5992 10 16.1223 10 15.625L10 11.875C10 11.3777 10.1975 10.9008 10.5492 10.5492Z" stroke="#DBE1FF" stroke-opacity="1.000000" stroke-width="0.000000"/>
</svg>
